<?xml version="1.0" encoding="UTF-8" standalone="no"?>
<svg
   width="98"
   height="98"
   version="1.1"
   id="svg1"
   sodipodi:docname="icon_blue_with_padding.svg"
   inkscape:version="1.4.3 (0d15f75042, 2025-12-25)"
   inkscape:export-filename="icon.png"
   inkscape:export-xdpi="96"
   inkscape:export-ydpi="96"
   xmlns:inkscape="http://www.inkscape.org/namespaces/inkscape"
   xmlns:sodipodi="http://sodipodi.sourceforge.net/DTD/sodipodi-0.dtd"
   xmlns="http://www.w3.org/2000/svg"
   xmlns:svg="http://www.w3.org/2000/svg">
  <defs
     id="defs1" />
  <sodipodi:namedview
     id="namedview1"
     pagecolor="#505050"
     bordercolor="#ffffff"
     borderopacity="1"
     inkscape:showpageshadow="0"
     inkscape:pageopacity="0"
     inkscape:pagecheckerboard="1"
     inkscape:deskcolor="#505050"
     inkscape:zoom="4.6247759"
     inkscape:cx="43.894019"
     inkscape:cy="45.083266"
     inkscape:window-width="1920"
     inkscape:window-height="1129"
     inkscape:window-x="0"
     inkscape:window-y="32"
     inkscape:window-maximized="1"
     inkscape:current-layer="svg1" />
  <g
     id="g3"
     transform="translate(-1.5813747e-7,-3.0083762e-4)">
    <path
       fill-rule="evenodd"
       clip-rule="evenodd"
       d="m 39.335336,28.681562 c -16.266583,0 -29.4165327,13.246894 -29.4165327,29.635105 0,13.099974 8.4256257,24.188827 20.1142017,28.11352 1.461374,0.295044 1.996668,-0.637658 1.996668,-1.422235 0,-0.687032 -0.04817,-3.041968 -0.04817,-5.495654 -8.182967,1.766654 -9.886999,-3.532705 -9.886999,-3.532705 -1.315055,-3.434558 -3.263553,-4.317283 -3.263553,-4.317283 -2.678281,-1.815426 0.19509,-1.815426 0.19509,-1.815426 2.970918,0.196294 4.529836,3.041968 4.529836,3.041968 2.629508,4.513577 6.866707,3.238264 8.571342,2.453083 0.243261,-1.913574 1.023021,-3.238262 1.850951,-3.974067 -6.5265,-0.687032 -13.393209,-3.238263 -13.393209,-14.621559 0,-3.238263 1.168137,-5.887641 3.019087,-7.948136 -0.292033,-0.735804 -1.315053,-3.778375 0.292637,-7.850589 0,0 2.483792,-0.785181 8.084217,3.041967 a 28.282116,28.282116 0 0 1 7.354437,-0.981474 c 2.483792,0 5.015754,0.343817 7.35383,0.981474 5.601028,-3.827148 8.08482,-3.041967 8.08482,-3.041967 1.607691,4.072214 0.584068,7.114785 0.292033,7.850589 1.899725,2.060495 3.01969,4.709873 3.01969,7.948136 0,11.383296 -6.866707,13.885152 -13.441983,14.621559 1.071795,0.932099 1.996669,2.698151 1.996669,5.495052 0,3.974068 -0.04817,7.163558 -0.04817,8.14443 0,0.785179 0.535897,1.717881 1.996669,1.423439 C 60.277468,82.504892 68.703095,71.416641 68.703095,58.316667 68.751264,41.928456 55.553144,28.681562 39.335336,28.681562 Z"
       fill="#24292f"
       id="path1"
       style="fill:#007d79;fill-opacity:1;stroke-width:0.602132" />
    <path
       id="path2"
       style="fill:#007d79;fill-opacity:1;stroke:none;stroke-width:0.398788;stroke-linecap:round;stroke-dasharray:none;stroke-opacity:1"
       d="M 72.766813,11.514175 A 15.313677,15.313677 0 0 0 57.453988,26.827 15.313677,15.313677 0 0 0 72.766813,42.141383 15.313677,15.313677 0 0 0 88.081197,26.827 15.313677,15.313677 0 0 0 72.766813,11.514175 Z m 0.0062,7.51933 c 0.26223,0 0.485514,0.0914 0.66828,0.274166 0.190713,0.174821 0.285071,0.396547 0.285071,0.666724 0,0.270176 -0.0914,0.496418 -0.274166,0.679185 -0.182767,0.17482 -0.409009,0.263262 -0.679185,0.263262 -0.270177,0 -0.500935,-0.08844 -0.691648,-0.263262 -0.182767,-0.182767 -0.274167,-0.409009 -0.274167,-0.679185 0,-0.270177 0.0914,-0.491903 0.274167,-0.666724 0.190713,-0.182767 0.421471,-0.274166 0.691648,-0.274166 z m -0.845866,3.969184 h 1.668366 v 11.918456 h -1.668366 z" />
    <path
       style="fill:#007d79;fill-opacity:1;stroke:none;stroke-width:0.398788;stroke-linecap:round;stroke-dasharray:none;stroke-opacity:1"
       d="m 65.829576,39.053481 c 0,0 0.336431,2.52714 -1.866478,4.707743 0,0 3.841179,0.02947 6.829902,-2.327239 6.031148,-4.755752 -4.963424,-2.380504 -4.963424,-2.380504 z"
       id="path3"
       sodipodi:nodetypes="cssc" />
  </g>
</svg>
