<?xml version="1.0" encoding="UTF-8" standalone="no"?>
<svg
   width="98"
   height="96"
   version="1.1"
   id="svg1"
   sodipodi:docname="icon.svg"
   inkscape:version="1.4.2 (ebf0e940d0, 2025-05-08)"
   inkscape:export-filename="icon.png"
   inkscape:export-xdpi="96"
   inkscape:export-ydpi="96"
   xmlns:inkscape="http://www.inkscape.org/namespaces/inkscape"
   xmlns:sodipodi="http://sodipodi.sourceforge.net/DTD/sodipodi-0.dtd"
   xmlns="http://www.w3.org/2000/svg"
   xmlns:svg="http://www.w3.org/2000/svg">
  <defs
     id="defs1" />
  <sodipodi:namedview
     id="namedview1"
     pagecolor="#505050"
     bordercolor="#ffffff"
     borderopacity="1"
     inkscape:showpageshadow="0"
     inkscape:pageopacity="0"
     inkscape:pagecheckerboard="1"
     inkscape:deskcolor="#505050"
     inkscape:zoom="4.6247759"
     inkscape:cx="43.894019"
     inkscape:cy="45.299492"
     inkscape:window-width="1920"
     inkscape:window-height="1129"
     inkscape:window-x="0"
     inkscape:window-y="32"
     inkscape:window-maximized="1"
     inkscape:current-layer="g3" />
  <g
     id="g3"
     transform="translate(0,-1.0002007)">
    <path
       fill-rule="evenodd"
       clip-rule="evenodd"
       d="M 36.882445,23.524668 C 16.487405,23.524668 0,40.133622 0,60.68116 c 0,16.424746 10.564049,30.327948 25.219184,35.248728 1.83227,0.369926 2.503422,-0.799496 2.503422,-1.783198 0,-0.861401 -0.0604,-3.81402 -0.0604,-6.890451 -10.259803,2.215031 -12.396318,-4.429305 -12.396318,-4.429305 -1.648815,-4.306248 -4.091842,-5.413009 -4.091842,-5.413009 -3.3580279,-2.276181 0.244604,-2.276181 0.244604,-2.276181 3.724936,0.246114 5.679508,3.81402 5.679508,3.81402 3.296876,5.659122 8.609476,4.060134 10.746747,3.075675 0.305001,-2.399239 1.282664,-4.060133 2.320723,-4.982685 -8.182926,-0.861401 -16.792404,-4.060134 -16.792404,-18.332509 0,-4.060134 1.464609,-7.381924 3.785331,-9.965372 -0.366151,-0.922551 -1.648814,-4.737326 0.366908,-9.843068 0,0 3.114178,-0.984459 10.13599,3.814018 a 35.460114,35.460114 0 0 1 9.220992,-1.230572 c 3.114178,0 6.288752,0.431078 9.220232,1.230572 7.022568,-4.798477 10.136746,-3.814018 10.136746,-3.814018 2.015723,5.105742 0.732305,8.920517 0.366151,9.843068 2.381875,2.583448 3.786087,5.905238 3.786087,9.965372 0,14.272375 -8.609476,17.409202 -16.853557,18.332509 1.343816,1.168666 2.503423,3.382941 2.503423,6.889696 0,4.982686 -0.0604,8.981668 -0.0604,10.211485 0,0.984457 0.671908,2.153879 2.503423,1.784708 C 63.139688,91.008353 73.703738,77.105906 73.703738,60.68116 73.764133,40.133622 57.216331,23.524668 36.882445,23.524668 Z"
       fill="#24292f"
       id="path1"
       style="fill:#24292f;fill-opacity:1;stroke-width:0.754953" />
    <path
       id="path2"
       style="fill:#24292f;fill-opacity:1;stroke:none;stroke-width:0.5;stroke-linecap:round;stroke-dasharray:none;stroke-opacity:1"
       d="M 78.798828 2.0002007 A 19.200287 19.200287 0 0 0 59.599609 21.199419 A 19.200287 19.200287 0 0 0 78.798828 40.400591 A 19.200287 19.200287 0 0 0 98 21.199419 A 19.200287 19.200287 0 0 0 78.798828 2.0002007 z M 78.806641 11.427935 C 79.135425 11.427935 79.415378 11.542532 79.644531 11.771685 C 79.883647 11.990875 80.001953 12.268875 80.001953 12.607623 C 80.001953 12.94637 79.887356 13.230032 79.658203 13.459185 C 79.42905 13.678375 79.145388 13.789263 78.806641 13.789263 C 78.467893 13.789263 78.178569 13.678375 77.939453 13.459185 C 77.7103 13.230032 77.595703 12.94637 77.595703 12.607623 C 77.595703 12.268875 77.7103 11.990875 77.939453 11.771685 C 78.178569 11.542532 78.467893 11.427935 78.806641 11.427935 z M 77.746094 16.404498 L 79.837891 16.404498 L 79.837891 31.347857 L 77.746094 31.347857 L 77.746094 16.404498 z " />
    <path
       style="fill:#24292f;fill-opacity:1;stroke:none;stroke-width:0.5;stroke-linecap:round;stroke-dasharray:none;stroke-opacity:1"
       d="m 70.100921,36.528979 c 0,0 0.421817,3.168528 -2.34019,5.902568 0,0 4.81607,0.03695 8.56333,-2.917892 7.561852,-5.962762 -6.22314,-2.984676 -6.22314,-2.984676 z"
       id="path3"
       sodipodi:nodetypes="cssc" />
  </g>
</svg>
